<mxfile host="app.diagrams.net" modified="2024-06-04T13:18:03.398Z" agent="Mozilla/5.0 (Windows NT 10.0; Win64; x64; rv:109.0) Gecko/20100101 Firefox/115.0" version="24.4.13" etag="AaDLykHtC7l47Ks25H7T" type="github">
  <diagram name="第 1 页" id="Kw8mNgU5i97CvfjEzE1K">
    <mxGraphModel>
      <root>
        <mxCell id="0" />
        <mxCell id="1" parent="0" />
      </root>
    </mxGraphModel>
  </diagram>
</mxfile>
